<?xml version="1.0" encoding="UTF-8"?>
<svg xmlns="http://www.w3.org/2000/svg" xmlns:xlink="http://www.w3.org/1999/xlink" width="59px" height="36px" viewBox="0 0 58 36" version="1.1">
<g id="surface1">
<path style=" stroke:none;fill-rule:nonzero;fill:rgb(0%,0%,0%);fill-opacity:1;" d="M 51.660156 0.101562 C 51.519531 0.148438 50.589844 0.554688 49.597656 1.003906 C 47.570312 1.914062 47.511719 1.929688 46.832031 1.671875 L 46.464844 1.535156 L 45.945312 1.703125 C 44.867188 2.042969 42.457031 3.171875 42.054688 3.53125 C 41.535156 3.992188 41.640625 4.441406 43.066406 7.738281 C 44.273438 10.535156 46.246094 14.929688 46.910156 16.308594 C 47.828125 18.203125 47.996094 18.363281 48.910156 18.144531 C 49.765625 17.933594 52.566406 16.644531 52.933594 16.277344 C 53.058594 16.152344 53.171875 15.972656 53.207031 15.820312 C 53.34375 15.285156 53.335938 15.292969 53.894531 15 C 54.183594 14.84375 54.929688 14.484375 55.542969 14.191406 C 56.921875 13.554688 57.75 13.097656 57.863281 12.933594 C 58.046875 12.644531 58.023438 12.4375 57.714844 11.652344 C 56.945312 9.71875 54.828125 4.90625 53.097656 1.1875 C 52.644531 0.210938 52.246094 -0.09375 51.660156 0.101562 Z M 50.414062 14.230469 C 51.046875 14.539062 51.210938 15.503906 50.726562 16.039062 C 50.257812 16.554688 49.425781 16.546875 48.984375 16.023438 C 48.839844 15.84375 48.707031 15.503906 48.707031 15.296875 C 48.707031 14.917969 49.050781 14.390625 49.4375 14.199219 C 49.703125 14.066406 50.097656 14.078125 50.414062 14.230469 Z M 50.414062 14.230469 "/>
<path style=" stroke:none;fill-rule:nonzero;fill:rgb(0%,0%,0%);fill-opacity:1;" d="M 6.511719 0.417969 C 6.425781 0.441406 6.296875 0.496094 6.226562 0.542969 C 6.007812 0.675781 5.378906 1.773438 3.6875 4.988281 C 1.421875 9.285156 0.1875 11.742188 0.0546875 12.257812 C -0.125 12.914062 0.0898438 13.09375 2.667969 14.480469 C 3.414062 14.875 4.121094 15.28125 4.226562 15.371094 C 4.378906 15.496094 4.457031 15.640625 4.558594 15.96875 C 4.644531 16.253906 4.746094 16.457031 4.871094 16.582031 C 5.113281 16.828125 5.863281 17.246094 7.539062 18.089844 C 9.019531 18.832031 9.167969 18.867188 9.617188 18.644531 C 9.746094 18.578125 9.941406 18.441406 10.042969 18.335938 C 10.296875 18.066406 11.796875 15.226562 14.617188 9.679688 C 16.3125 6.359375 16.691406 5.527344 16.691406 5.144531 C 16.691406 4.894531 16.519531 4.492188 16.359375 4.355469 C 16.042969 4.082031 13.152344 2.539062 12.464844 2.277344 C 12.078125 2.132812 11.871094 2.164062 11.363281 2.421875 L 11.097656 2.558594 L 9.765625 1.847656 C 8.492188 1.171875 7.121094 0.507812 6.804688 0.417969 C 6.722656 0.394531 6.59375 0.394531 6.511719 0.417969 Z M 8.550781 14.75 C 8.925781 15.011719 9.0625 15.304688 9.042969 15.789062 C 9.027344 16.128906 8.996094 16.21875 8.84375 16.417969 C 8.445312 16.90625 7.894531 17.019531 7.375 16.710938 C 6.675781 16.296875 6.585938 15.449219 7.183594 14.90625 C 7.632812 14.492188 8.101562 14.4375 8.550781 14.75 Z M 8.550781 14.75 "/>
<path style=" stroke:none;fill-rule:nonzero;fill:rgb(0%,0%,0%);fill-opacity:1;" d="M 23.703125 4.660156 C 22.046875 4.792969 20.660156 5.175781 19.128906 5.929688 C 18.644531 6.167969 18.488281 6.273438 18.382812 6.449219 C 18.117188 6.878906 14.960938 12.980469 12.351562 18.121094 C 11.6875 19.417969 11.695312 19.160156 12.320312 20.394531 L 12.742188 21.222656 L 12.113281 21.84375 C 11.382812 22.570312 11.113281 23.039062 11.003906 23.785156 C 10.789062 25.207031 11.328125 26.421875 12.511719 27.195312 C 12.980469 27.507812 13.410156 27.664062 14.050781 27.746094 L 14.589844 27.820312 L 14.628906 28.164062 C 14.71875 28.886719 15.300781 29.910156 15.84375 30.316406 C 16.464844 30.769531 16.96875 30.945312 17.851562 31.023438 C 18.210938 31.046875 18.546875 31.085938 18.59375 31.105469 C 18.644531 31.125 18.738281 31.332031 18.800781 31.570312 C 19.09375 32.546875 19.945312 33.472656 20.863281 33.792969 C 21.027344 33.855469 21.414062 33.914062 21.71875 33.925781 C 22.449219 33.960938 23.027344 33.84375 23.632812 33.527344 C 23.886719 33.394531 24.105469 33.285156 24.117188 33.285156 C 24.128906 33.285156 24.242188 33.484375 24.367188 33.71875 C 24.632812 34.238281 25.183594 34.824219 25.597656 35.03125 C 26.390625 35.4375 27.507812 35.421875 28.355469 34.988281 L 28.75 34.792969 L 29.125 35.175781 C 29.332031 35.390625 29.640625 35.628906 29.800781 35.707031 C 30.640625 36.125 31.5625 35.96875 32.207031 35.308594 C 32.597656 34.902344 32.730469 34.519531 32.730469 33.753906 L 32.730469 33.148438 L 32.988281 33.394531 C 33.71875 34.070312 34.753906 34.238281 35.609375 33.820312 C 36.453125 33.40625 37.023438 32.265625 36.824219 31.386719 C 36.792969 31.25 36.78125 31.136719 36.800781 31.136719 C 36.816406 31.136719 36.996094 31.242188 37.191406 31.375 C 37.640625 31.667969 38.191406 31.816406 38.617188 31.761719 C 39.292969 31.679688 40.101562 31.105469 40.453125 30.464844 C 40.625 30.15625 40.628906 30.125 40.628906 29.332031 C 40.628906 28.875 40.648438 28.507812 40.664062 28.507812 C 40.6875 28.507812 40.871094 28.582031 41.074219 28.679688 C 42.257812 29.246094 43.660156 28.726562 44.25 27.503906 C 44.40625 27.191406 44.417969 27.101562 44.417969 26.503906 C 44.417969 25.671875 44.351562 25.5 43.703125 24.554688 C 43.421875 24.160156 43.144531 23.730469 43.078125 23.597656 L 42.957031 23.367188 L 43.132812 23.144531 C 43.226562 23.019531 43.820312 22.261719 44.445312 21.453125 C 45.601562 19.976562 46.140625 19.214844 46.199219 18.972656 C 46.246094 18.789062 45.75 17.371094 45.617188 17.3125 C 45.59375 17.300781 42.9375 20.433594 42.085938 21.472656 C 41.878906 21.722656 41.6875 21.933594 41.664062 21.933594 C 41.640625 21.933594 41.441406 21.847656 41.214844 21.742188 C 39.8125 21.078125 38.183594 21.910156 37.820312 23.480469 C 37.722656 23.890625 37.769531 24.316406 37.996094 24.933594 C 38.089844 25.203125 38.167969 25.429688 38.15625 25.433594 C 38.148438 25.441406 37.941406 25.378906 37.699219 25.296875 C 37.167969 25.117188 36.683594 25.128906 36.144531 25.339844 C 35.699219 25.507812 35.179688 25.996094 34.914062 26.484375 C 34.710938 26.855469 34.710938 26.867188 34.71875 27.597656 C 34.722656 28.003906 34.710938 28.320312 34.6875 28.308594 C 34.183594 28.027344 34.054688 27.996094 33.4375 27.996094 C 32.886719 27.996094 32.777344 28.015625 32.480469 28.160156 C 32.042969 28.363281 31.644531 28.746094 31.457031 29.128906 C 31.296875 29.460938 31.195312 30.054688 31.191406 30.65625 L 31.191406 31.050781 L 30.347656 31.046875 C 29.621094 31.046875 29.46875 31.0625 29.265625 31.164062 C 28.921875 31.339844 28.402344 31.902344 28.238281 32.277344 C 28.160156 32.457031 28.046875 32.714844 27.988281 32.851562 C 27.710938 33.484375 26.804688 33.667969 26.285156 33.191406 C 25.921875 32.863281 25.828125 32.308594 26.070312 31.929688 C 26.117188 31.859375 26.871094 31.203125 27.738281 30.464844 C 30.046875 28.519531 30.480469 28.097656 30.480469 27.808594 C 30.480469 27.425781 30.136719 27.019531 29.714844 26.886719 C 29.53125 26.832031 29.460938 26.839844 29.296875 26.921875 C 29.117188 27.019531 28.070312 27.808594 24.75 30.351562 C 23.3125 31.453125 22.523438 32.003906 22.246094 32.105469 C 21.703125 32.292969 20.878906 31.847656 20.621094 31.21875 C 20.5 30.9375 20.511719 30.316406 20.644531 30.058594 C 20.765625 29.808594 21.65625 29.050781 24.171875 27.046875 C 27.402344 24.476562 27.816406 24.101562 27.816406 23.730469 C 27.816406 23.523438 27.550781 23.109375 27.34375 22.984375 C 27.105469 22.847656 26.886719 22.863281 26.484375 23.0625 C 26.023438 23.28125 25.527344 23.652344 22.511719 26.007812 C 18.410156 29.21875 18.484375 29.164062 17.9375 29.164062 C 17.449219 29.164062 17.152344 29.03125 16.832031 28.671875 C 16.523438 28.339844 16.433594 28.0625 16.464844 27.578125 C 16.507812 26.941406 16.445312 26.988281 20.742188 23.617188 C 25.183594 20.132812 25.140625 20.164062 25.1875 19.917969 C 25.300781 19.304688 24.941406 18.730469 24.429688 18.742188 C 24.011719 18.753906 23.527344 19.085938 20.535156 21.425781 C 16.570312 24.519531 15.257812 25.511719 14.855469 25.710938 C 14.492188 25.886719 13.914062 25.894531 13.582031 25.714844 C 12.796875 25.289062 12.492188 24.203125 13.007812 23.640625 C 13.441406 23.179688 16.761719 20.46875 21.632812 16.613281 C 25.390625 13.636719 28.03125 11.570312 28.308594 11.382812 C 28.910156 10.976562 29.644531 10.835938 30.101562 11.027344 C 30.410156 11.15625 30.984375 11.738281 31.347656 12.296875 C 31.53125 12.574219 31.875 13.21875 32.113281 13.734375 C 33.058594 15.800781 33.621094 16.519531 34.742188 17.054688 C 35.058594 17.210938 35.195312 17.242188 35.546875 17.242188 C 35.925781 17.242188 36.019531 17.21875 36.523438 16.960938 C 36.890625 16.773438 37.171875 16.582031 37.363281 16.390625 L 37.640625 16.097656 L 37.46875 15.710938 C 37.125 14.941406 36.78125 13.59375 36.398438 11.503906 C 35.972656 9.148438 36.042969 9.363281 35.488281 8.816406 C 34.90625 8.230469 34.253906 7.726562 33.484375 7.261719 C 33.167969 7.070312 32.910156 6.902344 32.925781 6.894531 C 32.929688 6.882812 34.308594 6.824219 35.984375 6.757812 C 40.59375 6.566406 40.777344 6.5625 40.820312 6.496094 C 40.859375 6.425781 40.285156 5.277344 40.097656 5.054688 L 39.941406 4.886719 L 34.695312 4.960938 C 29.1875 5.039062 28.847656 5.027344 27.015625 4.785156 C 25.96875 4.648438 24.53125 4.59375 23.703125 4.660156 Z M 23.703125 4.660156 "/>
</g>
</svg>
