<?xml version="1.0" encoding="UTF-8"?>
<svg xmlns="http://www.w3.org/2000/svg" xmlns:xlink="http://www.w3.org/1999/xlink" width="39px" height="24px" viewBox="0 0 39 24" version="1.1">
<g id="surface1">
<path style=" stroke:none;fill-rule:nonzero;fill:rgb(0%,0%,0%);fill-opacity:1;" d="M 34.738281 0.0664062 C 34.640625 0.0976562 34.015625 0.371094 33.347656 0.667969 C 31.988281 1.273438 31.949219 1.285156 31.492188 1.117188 L 31.242188 1.023438 L 30.894531 1.136719 C 30.167969 1.363281 28.550781 2.117188 28.277344 2.355469 C 27.929688 2.660156 28 2.960938 28.960938 5.160156 C 29.769531 7.023438 31.097656 9.953125 31.542969 10.871094 C 32.160156 12.136719 32.273438 12.242188 32.886719 12.09375 C 33.464844 11.957031 35.347656 11.09375 35.59375 10.851562 C 35.675781 10.769531 35.753906 10.648438 35.777344 10.546875 C 35.867188 10.191406 35.863281 10.195312 36.238281 10 C 36.433594 9.894531 36.933594 9.65625 37.347656 9.460938 C 38.277344 9.035156 38.832031 8.734375 38.910156 8.621094 C 39.03125 8.429688 39.015625 8.289062 38.808594 7.769531 C 38.292969 6.476562 36.867188 3.269531 35.703125 0.792969 C 35.398438 0.140625 35.132812 -0.0625 34.738281 0.0664062 Z M 33.898438 9.484375 C 34.324219 9.691406 34.433594 10.335938 34.109375 10.691406 C 33.792969 11.035156 33.234375 11.03125 32.9375 10.679688 C 32.839844 10.5625 32.753906 10.335938 32.753906 10.199219 C 32.753906 9.945312 32.984375 9.59375 33.242188 9.464844 C 33.421875 9.378906 33.6875 9.386719 33.898438 9.484375 Z M 33.898438 9.484375 "/>
<path style=" stroke:none;fill-rule:nonzero;fill:rgb(0%,0%,0%);fill-opacity:1;" d="M 4.378906 0.277344 C 4.320312 0.292969 4.234375 0.332031 4.1875 0.363281 C 4.039062 0.449219 3.617188 1.183594 2.480469 3.328125 C 0.957031 6.191406 0.128906 7.828125 0.0351562 8.171875 C -0.0820312 8.609375 0.0585938 8.730469 1.792969 9.652344 C 2.296875 9.917969 2.769531 10.1875 2.839844 10.246094 C 2.945312 10.332031 2.996094 10.425781 3.0625 10.644531 C 3.125 10.835938 3.191406 10.972656 3.273438 11.054688 C 3.4375 11.21875 3.945312 11.496094 5.070312 12.058594 C 6.066406 12.554688 6.164062 12.578125 6.46875 12.429688 C 6.554688 12.386719 6.6875 12.292969 6.753906 12.222656 C 6.925781 12.042969 7.929688 10.152344 9.828125 6.453125 C 10.96875 4.238281 11.222656 3.683594 11.222656 3.429688 C 11.222656 3.261719 11.105469 2.996094 11 2.90625 C 10.789062 2.722656 8.84375 1.691406 8.382812 1.519531 C 8.121094 1.421875 7.984375 1.441406 7.640625 1.613281 L 7.460938 1.707031 L 6.566406 1.230469 C 5.710938 0.78125 4.789062 0.339844 4.578125 0.277344 C 4.519531 0.261719 4.433594 0.261719 4.378906 0.277344 Z M 5.75 9.832031 C 6 10.007812 6.09375 10.203125 6.082031 10.527344 C 6.070312 10.753906 6.050781 10.8125 5.945312 10.945312 C 5.679688 11.269531 5.308594 11.347656 4.957031 11.140625 C 4.488281 10.863281 4.429688 10.296875 4.832031 9.9375 C 5.132812 9.660156 5.449219 9.625 5.75 9.832031 Z M 5.75 9.832031 "/>
<path style=" stroke:none;fill-rule:nonzero;fill:rgb(0%,0%,0%);fill-opacity:1;" d="M 15.9375 3.109375 C 14.824219 3.195312 13.894531 3.449219 12.863281 3.953125 C 12.535156 4.113281 12.433594 4.183594 12.359375 4.296875 C 12.179688 4.585938 10.058594 8.652344 8.304688 12.078125 C 7.859375 12.945312 7.863281 12.773438 8.285156 13.597656 L 8.566406 14.148438 L 8.144531 14.5625 C 7.652344 15.046875 7.472656 15.359375 7.398438 15.855469 C 7.253906 16.804688 7.617188 17.613281 8.414062 18.132812 C 8.726562 18.339844 9.019531 18.441406 9.449219 18.496094 L 9.808594 18.546875 L 9.835938 18.777344 C 9.898438 19.257812 10.289062 19.941406 10.652344 20.210938 C 11.070312 20.515625 11.410156 20.628906 12.003906 20.679688 C 12.246094 20.695312 12.472656 20.726562 12.503906 20.738281 C 12.535156 20.75 12.597656 20.886719 12.644531 21.046875 C 12.839844 21.695312 13.410156 22.316406 14.027344 22.53125 C 14.140625 22.570312 14.398438 22.609375 14.605469 22.617188 C 15.09375 22.640625 15.484375 22.5625 15.890625 22.351562 C 16.0625 22.261719 16.207031 22.191406 16.21875 22.191406 C 16.226562 22.191406 16.300781 22.324219 16.382812 22.476562 C 16.5625 22.824219 16.933594 23.214844 17.210938 23.355469 C 17.746094 23.625 18.496094 23.613281 19.066406 23.328125 L 19.332031 23.195312 L 19.582031 23.449219 C 19.722656 23.59375 19.929688 23.753906 20.039062 23.804688 C 20.601562 24.082031 21.222656 23.980469 21.65625 23.539062 C 21.917969 23.265625 22.007812 23.011719 22.007812 22.503906 L 22.007812 22.097656 L 22.183594 22.261719 C 22.671875 22.714844 23.367188 22.824219 23.945312 22.546875 C 24.511719 22.269531 24.894531 21.511719 24.761719 20.925781 C 24.742188 20.832031 24.734375 20.757812 24.746094 20.757812 C 24.757812 20.757812 24.875 20.828125 25.007812 20.917969 C 25.308594 21.113281 25.679688 21.210938 25.96875 21.175781 C 26.421875 21.121094 26.964844 20.738281 27.199219 20.3125 C 27.316406 20.105469 27.320312 20.082031 27.320312 19.554688 C 27.320312 19.25 27.332031 19.003906 27.34375 19.003906 C 27.359375 19.003906 27.484375 19.054688 27.617188 19.121094 C 28.414062 19.496094 29.359375 19.152344 29.753906 18.335938 C 29.859375 18.128906 29.867188 18.066406 29.867188 17.667969 C 29.867188 17.117188 29.824219 17 29.386719 16.371094 C 29.199219 16.109375 29.011719 15.820312 28.96875 15.734375 L 28.882812 15.578125 L 29.003906 15.429688 C 29.066406 15.347656 29.464844 14.839844 29.886719 14.304688 C 30.664062 13.320312 31.023438 12.808594 31.066406 12.648438 C 31.097656 12.527344 30.761719 11.582031 30.675781 11.542969 C 30.660156 11.535156 28.871094 13.621094 28.300781 14.316406 C 28.160156 14.480469 28.03125 14.621094 28.015625 14.621094 C 28 14.621094 27.863281 14.566406 27.714844 14.492188 C 26.769531 14.050781 25.675781 14.605469 25.429688 15.652344 C 25.367188 15.929688 25.398438 16.210938 25.550781 16.621094 C 25.613281 16.800781 25.664062 16.953125 25.65625 16.957031 C 25.652344 16.960938 25.511719 16.921875 25.351562 16.863281 C 24.992188 16.746094 24.664062 16.753906 24.304688 16.890625 C 24.003906 17.003906 23.65625 17.332031 23.476562 17.65625 C 23.339844 17.90625 23.339844 17.914062 23.34375 18.398438 C 23.347656 18.667969 23.339844 18.878906 23.324219 18.871094 C 22.984375 18.683594 22.898438 18.664062 22.484375 18.664062 C 22.113281 18.664062 22.039062 18.675781 21.839844 18.773438 C 21.546875 18.910156 21.277344 19.164062 21.152344 19.417969 C 21.042969 19.640625 20.976562 20.035156 20.972656 20.4375 L 20.972656 20.703125 L 20.40625 20.695312 C 19.917969 20.695312 19.8125 20.710938 19.679688 20.777344 C 19.449219 20.890625 19.097656 21.265625 18.988281 21.519531 C 18.933594 21.636719 18.859375 21.808594 18.820312 21.902344 C 18.632812 22.324219 18.023438 22.445312 17.671875 22.128906 C 17.429688 21.910156 17.367188 21.539062 17.53125 21.285156 C 17.5625 21.238281 18.066406 20.800781 18.652344 20.3125 C 20.203125 19.011719 20.496094 18.734375 20.496094 18.539062 C 20.496094 18.28125 20.265625 18.011719 19.980469 17.925781 C 19.859375 17.886719 19.808594 17.890625 19.699219 17.949219 C 19.578125 18.011719 18.875 18.539062 16.644531 20.234375 C 15.675781 20.96875 15.144531 21.335938 14.960938 21.402344 C 14.59375 21.53125 14.039062 21.230469 13.863281 20.8125 C 13.785156 20.625 13.792969 20.210938 13.878906 20.039062 C 13.964844 19.871094 14.5625 19.367188 16.253906 18.03125 C 18.425781 16.320312 18.703125 16.066406 18.703125 15.820312 C 18.703125 15.679688 18.523438 15.40625 18.386719 15.324219 C 18.226562 15.230469 18.078125 15.242188 17.808594 15.375 C 17.5 15.523438 17.164062 15.769531 15.136719 17.339844 C 12.378906 19.476562 12.429688 19.441406 12.0625 19.441406 C 11.730469 19.441406 11.53125 19.355469 11.316406 19.117188 C 11.109375 18.890625 11.050781 18.710938 11.070312 18.386719 C 11.097656 17.960938 11.058594 17.992188 13.949219 15.746094 C 16.933594 13.421875 16.90625 13.441406 16.9375 13.277344 C 17.011719 12.867188 16.769531 12.484375 16.429688 12.492188 C 16.144531 12.503906 15.820312 12.726562 13.808594 14.28125 C 11.144531 16.347656 10.257812 17.007812 9.988281 17.140625 C 9.746094 17.257812 9.355469 17.261719 9.132812 17.144531 C 8.605469 16.859375 8.402344 16.136719 8.746094 15.761719 C 9.039062 15.453125 11.269531 13.644531 14.546875 11.074219 C 17.074219 9.089844 18.847656 7.714844 19.035156 7.589844 C 19.441406 7.320312 19.933594 7.222656 20.238281 7.351562 C 20.445312 7.4375 20.832031 7.824219 21.078125 8.199219 C 21.203125 8.382812 21.433594 8.8125 21.59375 9.15625 C 22.230469 10.535156 22.609375 11.011719 23.359375 11.371094 C 23.574219 11.472656 23.667969 11.492188 23.902344 11.492188 C 24.15625 11.492188 24.21875 11.476562 24.558594 11.308594 C 24.804688 11.183594 24.996094 11.054688 25.125 10.929688 L 25.308594 10.734375 L 25.195312 10.472656 C 24.964844 9.960938 24.734375 9.0625 24.472656 7.667969 C 24.1875 6.097656 24.234375 6.242188 23.863281 5.875 C 23.472656 5.484375 23.035156 5.152344 22.515625 4.839844 C 22.300781 4.714844 22.128906 4.601562 22.136719 4.597656 C 22.140625 4.589844 23.070312 4.550781 24.195312 4.507812 C 27.296875 4.378906 27.417969 4.375 27.445312 4.332031 C 27.476562 4.28125 27.089844 3.519531 26.960938 3.371094 L 26.859375 3.257812 L 23.328125 3.308594 C 19.628906 3.359375 19.398438 3.351562 18.167969 3.191406 C 17.460938 3.097656 16.496094 3.0625 15.9375 3.109375 Z M 15.9375 3.109375 "/>
</g>
</svg>
