<?xml version="1.0" encoding="UTF-8"?>
<svg xmlns="http://www.w3.org/2000/svg" xmlns:xlink="http://www.w3.org/1999/xlink" width="20px" height="20px" viewBox="0 0 20 20" version="1.1">
<g id="surface1">
<path style=" stroke:none;fill-rule:nonzero;fill:rgb(100%,100%,100%);fill-opacity:1;" d="M 8.613281 17.011719 C 8.269531 17.011719 7.703125 17 7.34375 16.988281 C 6.988281 16.972656 6.515625 16.960938 6.296875 16.957031 C 6.078125 16.949219 5.78125 16.9375 5.636719 16.933594 C 5.492188 16.925781 5.234375 16.914062 5.0625 16.90625 C 4.894531 16.902344 4.625 16.890625 4.460938 16.878906 C 4.296875 16.867188 4.066406 16.855469 3.949219 16.851562 C 3.222656 16.8125 2.871094 16.746094 2.449219 16.589844 C 1.914062 16.386719 1.351562 15.929688 1.074219 15.464844 C 0.808594 15.03125 0.585938 14.351562 0.488281 13.691406 C 0.46875 13.539062 0.414062 12.902344 0.398438 12.546875 C 0.394531 12.476562 0.386719 12.328125 0.378906 12.222656 C 0.316406 11.164062 0.316406 8.21875 0.378906 7.164062 C 0.386719 7.050781 0.398438 6.863281 0.40625 6.738281 C 0.410156 6.621094 0.425781 6.425781 0.433594 6.300781 C 0.445312 6.179688 0.457031 6.007812 0.464844 5.917969 C 0.507812 5.320312 0.722656 4.550781 0.972656 4.085938 C 1.1875 3.691406 1.464844 3.386719 1.863281 3.132812 C 2.308594 2.839844 2.777344 2.699219 3.574219 2.609375 C 3.933594 2.570312 3.859375 2.574219 4.59375 2.53125 C 4.765625 2.523438 5.058594 2.511719 5.238281 2.503906 C 5.417969 2.496094 5.695312 2.484375 5.855469 2.480469 C 6.535156 2.453125 8.777344 2.398438 9.601562 2.390625 C 10.402344 2.382812 11.703125 2.398438 12.695312 2.425781 C 13.027344 2.4375 13.484375 2.449219 13.707031 2.457031 C 13.929688 2.460938 14.234375 2.472656 14.382812 2.480469 C 14.527344 2.484375 14.785156 2.496094 14.945312 2.503906 C 15.109375 2.511719 15.375 2.523438 15.539062 2.53125 C 15.703125 2.542969 15.933594 2.558594 16.050781 2.5625 C 16.414062 2.582031 16.722656 2.613281 16.929688 2.644531 C 17.597656 2.753906 18.117188 3.023438 18.574219 3.484375 C 18.867188 3.773438 19.039062 4.0625 19.238281 4.589844 C 19.371094 4.941406 19.511719 5.566406 19.535156 5.925781 C 19.542969 6.003906 19.550781 6.175781 19.566406 6.300781 C 19.578125 6.425781 19.589844 6.628906 19.59375 6.746094 C 19.601562 6.863281 19.613281 7.050781 19.621094 7.164062 C 19.683594 8.222656 19.683594 11.132812 19.621094 12.222656 C 19.613281 12.335938 19.601562 12.523438 19.59375 12.644531 C 19.589844 12.765625 19.574219 12.964844 19.566406 13.085938 C 19.554688 13.207031 19.542969 13.378906 19.535156 13.460938 C 19.480469 14.175781 19.226562 15.03125 18.917969 15.507812 C 18.730469 15.800781 18.449219 16.078125 18.113281 16.300781 C 17.980469 16.390625 17.65625 16.554688 17.527344 16.597656 C 17.097656 16.75 16.738281 16.8125 16.03125 16.851562 C 15.910156 16.855469 15.679688 16.867188 15.515625 16.878906 C 15.351562 16.890625 15.085938 16.902344 14.921875 16.90625 C 14.757812 16.914062 14.503906 16.925781 14.355469 16.933594 C 14.207031 16.9375 13.910156 16.949219 13.691406 16.957031 C 13.46875 16.960938 13.011719 16.972656 12.667969 16.984375 C 11.363281 17.023438 9.976562 17.035156 8.613281 17.011719 Z M 10.835938 15.882812 C 12.804688 15.855469 14.847656 15.792969 15.695312 15.730469 C 15.78125 15.722656 15.957031 15.714844 16.082031 15.707031 C 16.632812 15.679688 16.988281 15.605469 17.285156 15.464844 C 17.519531 15.355469 17.828125 15.097656 17.945312 14.921875 C 18.160156 14.597656 18.347656 13.964844 18.398438 13.402344 C 18.4375 12.957031 18.484375 12.230469 18.496094 11.777344 C 18.53125 10.960938 18.535156 10.617188 18.535156 9.695312 C 18.535156 8.339844 18.511719 7.640625 18.4375 6.503906 C 18.417969 6.160156 18.382812 5.824219 18.355469 5.691406 C 18.261719 5.199219 18.109375 4.761719 17.949219 4.511719 C 17.867188 4.378906 17.640625 4.15625 17.488281 4.050781 C 17.246094 3.890625 16.945312 3.785156 16.632812 3.753906 C 16.570312 3.746094 16.476562 3.734375 16.425781 3.730469 C 16.378906 3.726562 16.234375 3.714844 16.109375 3.707031 C 15.980469 3.699219 15.804688 3.691406 15.722656 3.683594 C 14.457031 3.589844 10.777344 3.5 9.433594 3.527344 C 6.949219 3.574219 5.125 3.632812 4.410156 3.683594 C 4.324219 3.691406 4.167969 3.699219 4.058594 3.707031 C 3.953125 3.714844 3.832031 3.726562 3.789062 3.730469 C 3.75 3.734375 3.660156 3.746094 3.597656 3.753906 C 3.09375 3.808594 2.746094 3.910156 2.464844 4.097656 C 2.339844 4.179688 2.125 4.390625 2.050781 4.492188 C 1.835938 4.824219 1.65625 5.425781 1.601562 5.992188 C 1.542969 6.621094 1.507812 7.277344 1.476562 8.324219 C 1.464844 8.808594 1.464844 10.578125 1.476562 11.0625 C 1.503906 11.996094 1.507812 12.125 1.558594 12.882812 C 1.605469 13.609375 1.671875 13.964844 1.839844 14.433594 C 1.988281 14.839844 2.140625 15.058594 2.421875 15.273438 C 2.808594 15.566406 3.164062 15.667969 3.902344 15.707031 C 4.03125 15.714844 4.203125 15.722656 4.285156 15.726562 C 5.039062 15.785156 7.167969 15.855469 9.042969 15.882812 C 9.949219 15.898438 9.976562 15.898438 10.835938 15.882812 Z M 10.835938 15.882812 "/>
<path style=" stroke:none;fill-rule:nonzero;fill:rgb(100%,100%,100%);fill-opacity:1;" d="M 8.449219 12.792969 C 8.304688 12.769531 8.117188 12.660156 8.019531 12.546875 C 7.945312 12.464844 7.871094 12.324219 7.84375 12.210938 C 7.824219 12.125 7.824219 12.03125 7.824219 9.710938 C 7.824219 8.90625 7.824219 8.105469 7.824219 7.300781 C 7.832031 7.265625 7.839844 7.234375 7.847656 7.199219 C 7.925781 6.921875 8.105469 6.726562 8.371094 6.636719 C 8.441406 6.617188 8.476562 6.609375 8.609375 6.609375 C 8.832031 6.609375 8.800781 6.59375 9.417969 6.929688 C 9.589844 7.019531 9.796875 7.132812 9.878906 7.179688 C 9.96875 7.222656 10.097656 7.292969 10.175781 7.335938 C 10.25 7.375 10.355469 7.433594 10.410156 7.464844 C 10.464844 7.492188 10.644531 7.589844 10.808594 7.675781 C 10.972656 7.765625 11.15625 7.867188 11.214844 7.894531 C 11.273438 7.925781 11.414062 8 11.523438 8.0625 C 11.636719 8.121094 11.773438 8.195312 11.828125 8.222656 C 11.882812 8.257812 12.0625 8.351562 12.226562 8.441406 C 12.53125 8.605469 12.554688 8.617188 13 8.855469 C 13.320312 9.027344 13.417969 9.09375 13.496094 9.203125 C 13.578125 9.316406 13.609375 9.363281 13.636719 9.484375 C 13.710938 9.761719 13.632812 10.035156 13.429688 10.242188 C 13.339844 10.328125 13.308594 10.347656 13.082031 10.472656 C 12.949219 10.546875 12.8125 10.621094 12.785156 10.636719 C 12.675781 10.695312 11.824219 11.160156 11.609375 11.277344 C 10.988281 11.621094 10.515625 11.875 10.386719 11.945312 C 10.34375 11.972656 10.269531 12.011719 10.21875 12.039062 C 10.171875 12.066406 10.089844 12.109375 10.035156 12.136719 C 9.980469 12.167969 9.714844 12.3125 9.441406 12.464844 C 9.167969 12.613281 8.910156 12.75 8.863281 12.765625 C 8.800781 12.792969 8.761719 12.796875 8.644531 12.800781 C 8.566406 12.800781 8.476562 12.800781 8.449219 12.792969 Z M 8.449219 12.792969 "/>
</g>
</svg>
