<?xml version="1.0" encoding="UTF-8"?>
<svg xmlns="http://www.w3.org/2000/svg" xmlns:xlink="http://www.w3.org/1999/xlink" width="12px" height="12px" viewBox="0 0 12 12" version="1.1">
<g id="surface1">
<path style=" stroke:none;fill-rule:nonzero;fill:rgb(0%,0%,0%);fill-opacity:1;" d="M 11 5.5 L 9.5 5.5 L 9.5 1 C 9.5 0.726562 9.273438 0.5 9 0.5 L 3 0.5 C 2.726562 0.5 2.5 0.726562 2.5 1 L 2.5 3.5 L 1 3.5 C 0.726562 3.5 0.5 3.726562 0.5 4 L 0.5 11 C 0.5 11.273438 0.726562 11.5 1 11.5 L 11 11.5 C 11.273438 11.5 11.5 11.273438 11.5 11 L 11.5 6 C 11.5 5.726562 11.273438 5.5 11 5.5 Z M 6.5 6 L 6.5 10.5 L 1.5 10.5 L 1.5 4.5 L 6.5 4.5 Z M 7 3.5 L 3.5 3.5 L 3.5 1.5 L 8.5 1.5 L 8.5 5.5 L 7.5 5.5 L 7.5 4 C 7.5 3.726562 7.273438 3.5 7 3.5 Z M 10.5 10.5 L 9.5 10.5 L 9.5 9.5 C 9.5 9.226562 9.273438 9 9 9 C 8.726562 9 8.5 9.226562 8.5 9.5 L 8.5 10.5 L 7.5 10.5 L 7.5 6.5 L 10.5 6.5 Z M 2 5 L 3 5 L 3 6 L 2 6 Z M 4 5 L 6 5 L 6 6 L 4 6 Z M 2 7 L 3 7 L 3 8 L 2 8 Z M 4 7 L 6 7 L 6 8 L 4 8 Z M 2 9 L 3 9 L 3 10 L 2 10 Z M 4 9 L 6 9 L 6 10 L 4 10 Z M 4 9 "/>
</g>
</svg>
