<?xml version="1.0" encoding="UTF-8"?>
<svg xmlns="http://www.w3.org/2000/svg" xmlns:xlink="http://www.w3.org/1999/xlink" width="24px" height="24px" viewBox="0 0 24 24" version="1.1">
<g id="surface1">
<path style=" stroke:none;fill-rule:nonzero;fill:rgb(0%,0%,0%);fill-opacity:1;" d="M 22 11 L 19 11 L 19 2 C 19 1.449219 18.550781 1 18 1 L 6 1 C 5.449219 1 5 1.449219 5 2 L 5 7 L 2 7 C 1.449219 7 1 7.449219 1 8 L 1 22 C 1 22.550781 1.449219 23 2 23 L 22 23 C 22.550781 23 23 22.550781 23 22 L 23 12 C 23 11.449219 22.550781 11 22 11 Z M 13 12 L 13 21 L 3 21 L 3 9 L 13 9 Z M 14 7 L 7 7 L 7 3 L 17 3 L 17 11 L 15 11 L 15 8 C 15 7.449219 14.550781 7 14 7 Z M 21 21 L 19 21 L 19 19 C 19 18.449219 18.550781 18 18 18 C 17.449219 18 17 18.449219 17 19 L 17 21 L 15 21 L 15 13 L 21 13 Z M 4 10 L 6 10 L 6 12 L 4 12 Z M 8 10 L 12 10 L 12 12 L 8 12 Z M 4 14 L 6 14 L 6 16 L 4 16 Z M 8 14 L 12 14 L 12 16 L 8 16 Z M 4 18 L 6 18 L 6 20 L 4 20 Z M 8 18 L 12 18 L 12 20 L 8 20 Z M 8 18 "/>
</g>
</svg>
