<?xml version="1.0" encoding="UTF-8"?>
<svg xmlns="http://www.w3.org/2000/svg" xmlns:xlink="http://www.w3.org/1999/xlink" width="15px" height="15px" viewBox="0 0 15 15" version="1.1">
<g id="surface1">
<path style=" stroke:none;fill-rule:nonzero;fill:rgb(0%,0%,0%);fill-opacity:1;" d="M 13.75 6.875 L 11.875 6.875 L 11.875 1.25 C 11.875 0.90625 11.59375 0.625 11.25 0.625 L 3.75 0.625 C 3.40625 0.625 3.125 0.90625 3.125 1.25 L 3.125 4.375 L 1.25 4.375 C 0.90625 4.375 0.625 4.65625 0.625 5 L 0.625 13.75 C 0.625 14.09375 0.90625 14.375 1.25 14.375 L 13.75 14.375 C 14.09375 14.375 14.375 14.09375 14.375 13.75 L 14.375 7.5 C 14.375 7.15625 14.09375 6.875 13.75 6.875 Z M 8.125 7.5 L 8.125 13.125 L 1.875 13.125 L 1.875 5.625 L 8.125 5.625 Z M 8.75 4.375 L 4.375 4.375 L 4.375 1.875 L 10.625 1.875 L 10.625 6.875 L 9.375 6.875 L 9.375 5 C 9.375 4.65625 9.09375 4.375 8.75 4.375 Z M 13.125 13.125 L 11.875 13.125 L 11.875 11.875 C 11.875 11.53125 11.59375 11.25 11.25 11.25 C 10.90625 11.25 10.625 11.53125 10.625 11.875 L 10.625 13.125 L 9.375 13.125 L 9.375 8.125 L 13.125 8.125 Z M 2.5 6.25 L 3.75 6.25 L 3.75 7.5 L 2.5 7.5 Z M 5 6.25 L 7.5 6.25 L 7.5 7.5 L 5 7.5 Z M 2.5 8.75 L 3.75 8.75 L 3.75 10 L 2.5 10 Z M 5 8.75 L 7.5 8.75 L 7.5 10 L 5 10 Z M 2.5 11.25 L 3.75 11.25 L 3.75 12.5 L 2.5 12.5 Z M 5 11.25 L 7.5 11.25 L 7.5 12.5 L 5 12.5 Z M 5 11.25 "/>
</g>
</svg>
